# xmcd
#
# Track frame offsets: 
#        150
#        10367
#        23952
#        44380
#        58820
#        76425
#        94742
#        114600
#        131495
#        153767
#        168667
#        181642
#        195852
#        215617
#        234442
#        253915
#        274250
#        295957
#
# Disc length: 4189 seconds
#
# Revision: 3
# Processed by: cddbd v1.5.2PL0 Copyright (c) Steve Scherf et al.
# Submitted via: ExactAudioCopy v1.1
#
DISCID=fb105b12
DTITLE=Various Artist - YAMATO ETERNAL EDITION File No.10 ヤマト・ザ・ベスト
DYEAR=2001
DGENRE=Anime
TTITLE0=ささきいさお - 宇宙戦艦ヤマト
TTITLE1=ささきいさお - 真赤なスカーフ
TTITLE2=沢田研二 - ヤマトより愛をこめて
TTITLE3=ささきいさお - テレサよ永遠に
TTITLE4=ささきいさお - ヤマト!!新たなる旅立ち
TTITLE5=島倉千代子 - サーシャわが愛
TTITLE6=ささきいさお - 星のペンダント
TTITLE7=岩崎宏美 - 愛の生命
TTITLE8=布施明 - 愛よその日まで
TTITLE9=岩崎宏美 - 銀河伝説
TTITLE10=ささきいさお - ヤマトよ永遠に
TTITLE11=堀江美都子 - 別離
TTITLE12=ささきいさお - 古代とヤマト
TTITLE13=桑江知子 - 二つの愛
TTITLE14=トランサム、桑江知子 - 明日に架ける虹
TTITLE15=八神純子 - ラブ・シュープリーム～至上の愛～
TTITLE16=ささきいさお - 宇宙戦艦ヤマト'83
TTITLE17=佐々木功 - 宇宙戦艦ヤマト(2000 Jazz Version)(ボーナストラック)
EXTD=YEAR: 2001.3.31
EXTT0=
EXTT1=
EXTT2=
EXTT3=
EXTT4=
EXTT5=
EXTT6=
EXTT7=
EXTT8=
EXTT9=
EXTT10=
EXTT11=
EXTT12=
EXTT13=
EXTT14=
EXTT15=
EXTT16=
EXTT17=
PLAYORDER=
